<?xml version="1.0" encoding="UTF-8"?>
<svg width="369px" height="361px" viewBox="0 0 369 361" version="1.1" xmlns="http://www.w3.org/2000/svg" xmlns:xlink="http://www.w3.org/1999/xlink">
    <title>logo._v2</title>
    <g id="Page-1" stroke="none" stroke-width="1" fill="none" fill-rule="evenodd">
        <g id="logo._v2" transform="translate(1.000000, 1.000000)" fill-rule="nonzero">
            <polygon id="Fill-1" stroke="#993333" fill="#FFFFFF" points="329.611 0 0 38.312 37.2396 358.695 366.85 320.3828"></polygon>
            <polygon id="Fill-2" fill="#A2292A" points="317.887 12.669 14.3008 47.956 48.7625 344.4398 352.349 309.1526"></polygon>
            <path d="M85.55,178.262 C80.228,178.942 75.967,178.296 72.7668,176.325 C69.5667,174.354 67.1733,171.453 65.5867,167.624 C64.0001,163.794 62.9353,159.436 62.3921,154.547 L59.2855,126.587 C58.6916,121.243 58.7463,116.51 59.4494,112.388 C60.1525,108.266 61.8525,104.926 64.5493,102.367 C67.2462,99.809 71.2556,98.19 76.5776,97.51 C81.2807,96.91 85.1106,97.347 88.0671,98.82 C91.0237,100.293 93.2936,102.647 94.8769,105.882 C96.4602,109.118 97.5162,113.114 98.0448,117.872 L98.74,124.129 L88.8078,125.396 L88.1886,119.824 C87.8627,116.891 87.4356,114.318 86.9073,112.105 C86.379,109.892 85.4272,108.246 84.052,107.165 C82.6767,106.085 80.5348,105.73 77.6263,106.102 C74.6559,106.481 72.5642,107.425 71.3512,108.935 C70.1383,110.445 69.4664,112.448 69.3357,114.943 C69.2051,117.439 69.3208,120.316 69.6828,123.575 L73.1697,154.956 C73.6115,158.932 74.2703,162.037 75.1462,164.272 C76.0221,166.507 77.226,168.022 78.758,168.818 C80.2899,169.614 82.2626,169.858 84.6761,169.55 C87.5227,169.186 89.4906,168.257 90.5798,166.763 C91.669,165.269 92.238,163.329 92.2867,160.943 C92.3354,158.558 92.186,155.801 91.8384,152.672 L91.1866,146.806 L101.119,145.538 L101.771,151.404 C102.307,156.227 102.222,160.551 101.517,164.376 C100.813,168.2 99.2129,171.313 96.7181,173.713 C94.2234,176.114 90.5007,177.63 85.55,178.262 Z" id="Fill-3" fill="#FFFFFF"></path>
            <path d="M110.329,174.207 L117.497,92.981 L127.615,91.689 L152.472,168.827 L142.54,170.095 L136.889,150.59 L121.573,152.545 L120.169,172.951 L110.329,174.207 Z M122.086,144.448 L134.617,142.849 L124.34,107.971 L122.086,144.448 Z" id="Fill-4" fill="#FFFFFF"></path>
            <polygon id="Fill-5" fill="#FFFFFF" points="160.084 167.855 151.285 88.667 180.339 84.958 181.219 92.877 162.654 95.247 165.587 121.643 179.975 119.806 180.844 127.627 166.456 129.464 170.573 166.516"></polygon>
            <path d="M196.378,163.222 L187.579,84.034 L216.727,80.313 L217.639,88.525 L198.981,90.907 L201.892,117.107 L217.023,115.176 L217.892,122.997 L202.761,124.928 L205.987,153.964 L224.831,151.558 L225.711,159.477 L196.378,163.222 Z M199.404,77.765 L202.73,57.709 L212.662,56.441 L204.416,77.125 L199.404,77.765 Z" id="Fill-6" fill="#FFFFFF"></path>
            <path d="M251.985,157.015 C247.653,157.568 243.94,157.051 240.845,155.463 C237.75,153.875 235.268,151.449 233.399,148.184 C231.53,144.919 230.219,141.022 229.464,136.491 L238.454,132.666 C238.951,135.445 239.669,138.097 240.608,140.621 C241.548,143.145 242.852,145.143 244.522,146.615 C246.192,148.088 248.357,148.654 251.018,148.314 C253.741,147.967 255.71,146.906 256.925,145.131 C258.14,143.357 258.581,140.97 258.248,137.972 C257.85,134.388 256.756,131.602 254.966,129.617 C253.176,127.631 250.983,125.68 248.385,123.764 L234.457,113.644 C231.728,111.679 229.626,109.419 228.149,106.865 C226.673,104.31 225.714,101.045 225.272,97.069 C224.628,91.268 225.706,86.57 228.507,82.973 C231.309,79.377 235.432,77.231 240.878,76.536 C243.848,76.157 246.508,76.23 248.857,76.757 C251.207,77.283 253.233,78.297 254.938,79.798 C256.642,81.299 258.086,83.279 259.27,85.739 C260.453,88.199 261.391,91.136 262.084,94.551 L253.456,98.23 C252.98,95.647 252.343,93.299 251.543,91.187 C250.744,89.075 249.574,87.439 248.033,86.281 C246.492,85.123 244.422,84.709 241.823,85.041 C239.224,85.373 237.279,86.365 235.987,88.017 C234.696,89.669 234.21,91.929 234.528,94.797 C234.796,97.208 235.404,99.147 236.351,100.612 C237.298,102.078 238.729,103.514 240.643,104.923 L254.663,115.031 C257.8,117.274 260.652,120.066 263.22,123.407 C265.787,126.748 267.346,130.895 267.897,135.848 C268.331,139.759 267.933,143.23 266.7,146.263 C265.468,149.295 263.59,151.733 261.064,153.576 C258.539,155.418 255.513,156.565 251.985,157.015 Z" id="Fill-7" fill="#FFFFFF"></path>
            <polygon id="Fill-8" fill="#FFFFFF" points="77.7045 279.6493 68.9058 200.462 79.3951 199.123 87.3138 270.3914 106.529 267.9385 107.408 275.8573"></polygon>
            <polygon id="Fill-9" fill="#FFFFFF" points="114.556 274.9448 105.757 195.757 116.061 194.442 124.86 273.6295"></polygon>
            <path d="M154.29,270.7647 C149.958,271.3177 146.245,270.8003 143.15,269.2124 C140.055,267.6245 137.573,265.1982 135.704,261.9335 C133.835,258.669 132.524,254.771 131.769,250.241 L140.758,246.416 C141.255,249.195 141.974,251.846 142.913,254.37 C143.852,256.894 145.157,258.8925 146.827,260.3649 C148.497,261.8372 150.662,262.4036 153.323,262.0639 C156.046,261.7163 158.015,260.6552 159.23,258.8806 C160.445,257.106 160.886,254.72 160.553,251.722 C160.154,248.137 159.06,245.352 157.271,243.366 C155.481,241.38 153.287,239.429 150.69,237.514 L136.762,227.394 C134.033,225.429 131.931,223.169 130.454,220.614 C128.978,218.059 128.019,214.794 127.577,210.819 C126.933,205.018 128.011,200.319 130.812,196.723 C133.613,193.126 137.737,190.981 143.183,190.285 C146.153,189.906 148.813,189.98 151.162,190.506 C153.511,191.032 155.538,192.046 157.243,193.547 C158.947,195.048 160.391,197.029 161.574,199.488 C162.758,201.948 163.696,204.886 164.389,208.3 L155.76,211.98 C155.285,209.397 154.648,207.049 153.848,204.936 C153.049,202.824 151.878,201.189 150.338,200.031 C148.797,198.872 146.727,198.459 144.128,198.791 C141.529,199.123 139.583,200.115 138.292,201.767 C137.001,203.419 136.514,205.679 136.833,208.546 C137.101,210.958 137.709,212.896 138.656,214.362 C139.603,215.827 141.034,217.264 142.948,218.672 L156.968,228.78 C160.104,231.024 162.956,233.816 165.524,237.157 C168.092,240.497 169.651,244.644 170.202,249.598 C170.636,253.508 170.237,256.98 169.005,260.0123 C167.773,263.0449 165.894,265.4826 163.369,267.3253 C160.844,269.1679 157.817,270.3144 154.29,270.7647 Z" id="Fill-10" fill="#FFFFFF"></path>
            <path d="M179.812,266.6143 L171.013,187.427 L188.279,185.223 C191.682,184.788 194.681,184.802 197.274,185.264 C199.867,185.726 202.09,186.665 203.942,188.081 C205.793,189.497 207.261,191.409 208.344,193.815 C209.428,196.222 210.158,199.12 210.534,202.509 C210.896,205.767 210.823,208.636 210.313,211.113 C209.804,213.591 208.837,215.615 207.411,217.185 C205.985,218.755 204.056,219.894 201.624,220.601 C204.736,220.931 207.316,221.841 209.364,223.331 C211.413,224.821 213.036,226.861 214.234,229.451 C215.432,232.041 216.241,235.227 216.661,239.007 C217.037,242.396 217.01,245.539 216.579,248.436 C216.147,251.334 215.251,253.861 213.891,256.017 C212.53,258.174 210.687,259.9462 208.362,261.3336 C206.037,262.721 203.204,263.6281 199.862,264.0547 L179.812,266.6143 Z M189.421,257.356 L196.476,256.456 C201.179,255.855 204.191,254.298 205.512,251.782 C206.833,249.267 207.208,245.435 206.635,240.287 C206.266,236.963 205.539,234.23 204.454,232.088 C203.368,229.946 201.85,228.421 199.897,227.514 C197.945,226.606 195.422,226.35 192.328,226.745 L186.108,227.539 L189.421,257.356 Z M185.174,219.131 L191.393,218.337 C194.364,217.958 196.636,217.222 198.209,216.129 C199.782,215.036 200.8,213.468 201.263,211.426 C201.727,209.384 201.785,206.798 201.437,203.67 C201.032,200.02 200.212,197.448 198.979,195.953 C197.746,194.458 195.992,193.64 193.717,193.501 C191.443,193.362 188.511,193.521 184.921,193.98 L182.415,194.3 L185.174,219.131 Z" id="Fill-11" fill="#FFFFFF"></path>
            <path d="M250.453,258.489 C245.379,259.1364 241.21,258.611 237.946,256.913 C234.682,255.214 232.184,252.509 230.454,248.797 C228.723,245.085 227.569,240.622 226.989,235.408 L223.654,205.395 C223.075,200.181 223.242,195.615 224.157,191.698 C225.071,187.78 226.918,184.636 229.698,182.265 C232.479,179.894 236.406,178.385 241.481,177.737 C246.555,177.089 250.69,177.586 253.885,179.227 C257.08,180.868 259.549,183.461 261.292,187.006 C263.035,190.552 264.197,194.931 264.776,200.145 L268.122,230.256 C268.694,235.405 268.528,239.987 267.625,244.002 C266.722,248.017 264.902,251.273 262.167,253.771 C259.432,256.268 255.528,257.841 250.453,258.489 Z M249.486,249.788 C252.271,249.432 254.308,248.561 255.598,247.173 C256.887,245.786 257.658,243.969 257.91,241.722 C258.163,239.476 258.126,236.886 257.8,233.953 L253.944,199.247 C253.618,196.315 253.09,193.821 252.36,191.766 C251.629,189.711 250.489,188.204 248.939,187.245 C247.389,186.286 245.221,185.984 242.437,186.34 C239.652,186.695 237.596,187.536 236.268,188.862 C234.941,190.189 234.147,191.942 233.887,194.124 C233.628,196.305 233.661,198.862 233.987,201.795 L237.843,236.501 C238.169,239.434 238.7,241.96 239.438,244.08 C240.176,246.201 241.339,247.771 242.927,248.791 C244.515,249.811 246.702,250.143 249.486,249.788 Z" id="Fill-12" fill="#FFFFFF"></path>
            <path d="M276.547,254.265 L283.715,173.039 L293.833,171.748 L318.69,248.885 L308.758,250.153 L303.107,230.648 L287.791,232.603 L286.387,253.009 L276.547,254.265 Z M288.304,224.507 L300.835,222.907 L290.558,188.029 L288.304,224.507 Z" id="Fill-13" fill="#FFFFFF"></path>
        </g>
    </g>
</svg>